HIERARCHY
ROOT Hips
{
	OFFSET 0.000000 0.000000 0.000000 
	CHANNELS 6 Xposition Yposition Zposition Yrotation Zrotation Xrotation 
	JOINT Lumbar
	{
		OFFSET 0.000000 0.000000 0.000000 
		CHANNELS 3 Zrotation Xrotation Yrotation
		JOINT Neck
		{
			OFFSET 0.000000 0.445665 0.000000 
			CHANNELS 3 Zrotation Xrotation Yrotation
			End Site
			{
				OFFSET 0.000000 0.227535 0.000000 
			}
		}
		JOINT RightShoulder
		{
			OFFSET 0.019635 0.377685 0.194865 
			CHANNELS 3 Zrotation Xrotation Yrotation
			JOINT RightElbow
			{
				OFFSET 0.000000 -0.243375 0.000000 
				CHANNELS 2 Zrotation Yrotation
				JOINT RightWrist
				{
					OFFSET 0.000000 -0.264825 0.000000 
					CHANNELS 2 Zrotation Xrotation
					End Site
					{
						OFFSET 0.006600 -0.176220 0.000990 
					}
				}
			}
		}
		JOINT LeftShoulder
		{
			OFFSET 0.019635 0.377685 -0.194865 
			CHANNELS 3 Zrotation Xrotation Yrotation
			JOINT LeftElbow
			{
				OFFSET 0.000000 -0.243375 0.000000 
				CHANNELS 2 Zrotation Yrotation
				JOINT LeftWrist
				{
					OFFSET 0.000000 -0.264825 0.000000 
					CHANNELS 2 Zrotation Xrotation
					End Site
					{
						OFFSET 0.006600 -0.176220 -0.000990 
					}
				}
			}
		}
	}
	JOINT RightHip
	{
		OFFSET 0.052140 -0.069960 0.075570 
		CHANNELS 3 Zrotation Xrotation Yrotation
		JOINT RightKnee
		{
			OFFSET 0.000000 -0.402270 0.000000 
			CHANNELS 1 Zrotation
			JOINT RightAnkle
			{
				OFFSET 0.000000 -0.404085 0.000000 
				CHANNELS 3 Zrotation Xrotation Yrotation
				End Site
				{
					OFFSET 0.204105 -0.089430 0.008415 
				}
			}
		}
	}
	JOINT LeftHip
	{
		OFFSET 0.052140 -0.069960 -0.075570 
		CHANNELS 3 Zrotation Xrotation Yrotation
		JOINT LeftKnee
		{
			OFFSET 0.000000 -0.402270 0.000000 
			CHANNELS 1 Zrotation
			JOINT LeftAnkle
			{
				OFFSET 0.000000 -0.404085 0.000000 
				CHANNELS 3 Zrotation Xrotation Yrotation
				End Site
				{
					OFFSET 0.204105 -0.089430 -0.008415 
				}
			}
		}
	}
}
MOTION
Frames: 16
Frame Time: 0.02
-1.09789 -0.54275 -0.14485 520.11967 -17.81895 9.46595 34.46424 16.20281 -0.81402 -19.30789 8.41194 -2.11993 53.50281 -6.82018 21.25147 96.56649 112.45158 -28.25918 -8.15105 96.72065 7.31374 -42.35264 59.48546 -50.65283 35.8057 6.7277 -6.2292 -24.21528 17.65542 -93.85016 -5.86593 -1.82514 -3.0934 86.18961 8.42629 11.79792 -142.25199 9.64492 11.41697 5.92406
-1.09404 -0.54299 -0.1475 520.35936 -18.67566 9.77596 34.32479 15.85418 -0.49297 -19.24715 7.54887 -2.11993 54.43332 -6.86348 21.59721 96.38016 112.07896 -27.86089 -8.13108 95.80169 8.68187 -41.93507 61.52684 -50.76975 33.98141 6.86541 -4.84788 -23.99291 17.9541 -94.87751 -5.85987 -1.81307 -3.08742 87.761 8.62372 11.30587 -142.16793 7.41008 10.19824 5.59578
-1.08897 -0.5435 -0.15022 520.67613 -19.75364 10.16757 34.20817 15.38008 -0.09019 -19.18077 6.51448 -2.11993 55.63065 -6.90223 22.03001 96.05963 111.6994 -27.41813 -8.11496 94.89032 10.50058 -41.94356 63.98661 -50.14628 32.0196 7.19168 -3.09871 -23.71542 18.40438 -96.19915 -5.85188 -1.79929 -3.08011 89.81917 8.84692 10.81133 -142.0678 3.66552 8.17702 5.05443
-1.08434 -0.54387 -0.15289 520.95969 -20.68357 10.50742 34.01873 14.96269 0.24426 -19.1172 5.55087 -2.11993 56.74003 -6.94336 22.44048 95.77094 111.33606 -27.00471 -8.09982 93.98398 12.11377 -41.74456 66.23243 -50.18546 29.89911 7.42938 -1.56005 -23.46363 18.75969 -97.37869 -5.84541 -1.78459 -3.07265 91.61392 9.05718 10.30499 -141.96421 0.73524 6.58752 4.62748
-1.08018 -0.54431 -0.15563 521.23702 -21.80921 10.90796 34.08424 14.54628 0.71001 -19.05149 4.61325 -2.11993 57.71318 -6.98182 22.77756 95.60628 110.95566 -26.57852 -8.07966 93.03406 13.73485 -41.58932 68.58719 -48.90041 28.66688 7.67559 0.15854 -23.20832 19.2203 -98.5947 -5.83618 -1.77691 -3.06836 93.58608 9.27379 9.84887 -141.90452 -2.70784 4.72972 4.13017
-1.07476 -0.54467 -0.15824 521.54668 -22.58525 11.20287 33.63266 14.09799 0.92197 -18.98933 3.58271 -2.11993 59.03098 -7.02608 23.28868 95.15132 110.59611 -26.15925 -8.06862 92.17993 15.44007 -41.44851 70.8079 -50.15556 25.5943 7.94984 1.59408 -22.94722 19.49957 -99.80461 -5.83224 -1.75437 -3.05721 95.30878 9.48285 9.29032 -141.75049 -5.45519 3.23289 3.72688
-1.06609 -0.54474 -0.16038 521.90678 -22.29602 11.17468 31.68342 13.59437 0.41174 -18.9382 2.33326 -2.11993 61.24412 -7.07767 24.25591 93.9247 110.28325 -25.76589 -8.07941 91.5854 17.3238 -41.25931 72.59632 -58.86622 17.17078 8.25985 2.11758 -22.68761 19.23884 -100.91963 -5.84343 -1.68986 -3.0268 96.17044 9.66476 8.43635 -141.33584 -5.87536 2.94961 3.64101
-1.05621 -0.54473 -0.16239 522.29976 -21.65558 11.03946 29.22553 13.06278 -0.35596 -18.89107 0.99807 -2.11993 63.7919 -7.13726 25.39579 92.41161 109.99326 -25.38179 -8.0992 91.08844 19.26562 -41.06921 74.22721 -70.09803 6.96358 8.59075 2.35031 -22.42355 18.79122 -102.0187 -5.86 -1.61073 -2.98966 96.77257 9.83805 7.48239 -140.82776 -5.55356 3.05173 3.65559
-1.04693 -0.54476 -0.1645 522.69068 -21.20655 10.96088 27.04284 12.54263 -1.00541 -18.84225 -0.2953 -2.11993 66.18124 -7.19948 26.45895 91.03049 109.68898 -24.98752 -8.11487 90.55015 21.14468 -40.87144 75.90314 -80.01167 -2.23202 8.91049 2.7435 -22.15896 18.43153 -103.1295 -5.87408 -1.53914 -2.95599 97.52905 10.01505 6.58317 -140.36524 -5.59916 2.96208 3.61995
-1.03739 -0.54477 -0.16642 523.03107 -20.63258 10.85168 24.67437 12.02306 -1.65916 -18.79239 -1.6091 -2.11993 68.61031 -7.23452 27.51838 89.63429 109.38113 -24.60182 -8.12897 90.00015 23.19538 -40.72261 77.70583 -90.66205 -12.30069 9.24616 3.03285 -21.90291 18.06535 -104.23393 -5.88829 -1.46359 -2.92047 98.15303 10.19365 5.64415 -139.88892 -5.56982 2.91456 3.59615
-1.02813 -0.54481 -0.1687 523.48211 -20.23056 10.7794 22.57253 11.49778 -2.36379 -18.74608 -2.89553 -2.11993 71.02823 -7.32882 28.62471 88.20684 109.11182 -24.22042 -8.15085 89.49651 24.89346 -40.46581 79.20165 -100.34333 -20.9483 9.5482 3.46102 -21.62911 17.66517 -105.34119 -5.9035 -1.39298 -2.88728 98.97979 10.36676 4.76484 -139.41952 -5.50033 2.88159 3.57442
-1.01983 -0.54503 -0.17194 524.24194 -20.4055 10.83787 21.3255 10.95969 -3.16684 -18.70553 -4.10948 -2.11993 73.36888 -7.57848 29.82373 86.733 108.71328 -23.67562 -8.16986 89.10757 25.62772 -39.91313 79.88523 -107.1082 -25.44621 9.77766 4.37291 -21.30447 17.22593 -106.48234 -5.92038 -1.33856 -2.86166 100.47197 10.52447 4.0704 -138.99093 -5.49895 2.7947 3.53374
-1.01188 -0.54529 -0.17554 525.10933 -20.76155 10.9362 20.36571 10.41814 -4.00888 -18.66885 -5.28751 -2.11993 75.67833 -7.88828 31.06214 85.24408 108.38981 -23.16343 -8.19984 88.76036 25.99883 -39.24987 80.26354 -112.74963 -28.41596 9.96742 5.42719 -20.96284 16.7564 -107.62108 -5.93805 -1.28984 -2.83873 102.16672 10.67715 3.44026 -138.57286 -5.47563 2.71318 3.49278
-1.00385 -0.54552 -0.17899 525.91986 -21.02279 11.01429 19.27771 9.88141 -4.81956 -18.63266 -6.46541 -2.11993 77.97803 -8.17524 32.27903 83.7823 108.19007 -22.75474 -8.24011 88.38655 26.51749 -38.63314 80.78222 -118.6552 -31.94181 10.15709 6.39529 -20.63131 16.29407 -108.74516 -5.95525 -1.23916 -2.81489 103.73897 10.83367 2.78373 -138.15078 -5.45663 2.63297 3.45303
-0.9954 -0.54579 -0.18235 526.7659 -21.32432 11.09809 18.16066 9.33006 -5.69607 -18.58784 -7.71612 -2.11993 80.39245 -8.44525 33.51895 82.22406 107.34845 -21.86253 -8.21889 88.04659 27.11026 -38.03024 81.29036 -125.66599 -36.09938 10.42196 7.44426 -20.28997 15.8533 -109.93618 -5.97317 -1.18521 -2.78941 105.43172 10.98377 2.11213 -137.72205 -5.43698 2.54952 3.41198
-0.98795 -0.54599 -0.18601 527.56229 -21.58996 11.18031 17.18081 8.80851 -6.44222 -18.56097 -8.80519 -2.11994 82.55379 -8.76257 34.71592 80.86783 107.83154 -21.96537 -8.32488 87.64703 27.46413 -37.37488 81.74796 -130.10356 -38.57363 10.5232 8.36214 -19.96459 15.36254 -110.98635 -5.98964 -1.13975 -2.76815 106.924 11.14561 1.48801 -137.31106 -5.42242 2.4696 3.37243
